<svg width="40" height="40" viewBox="0 0 40 40" fill="none" xmlns="http://www.w3.org/2000/svg">
<path d="M19.9997 10.8333C21.1047 10.8333 22.1646 11.2723 22.946 12.0537C23.7274 12.8351 24.1663 13.8949 24.1663 15C24.1663 15.5472 24.0586 16.089 23.8492 16.5945C23.6398 17.1 23.3329 17.5593 22.946 17.9463C22.559 18.3332 22.0997 18.6401 21.5942 18.8495C21.0887 19.0589 20.5468 19.1666 19.9997 19.1666C18.8946 19.1666 17.8348 18.7277 17.0534 17.9463C16.272 17.1649 15.833 16.105 15.833 15C15.833 13.8949 16.272 12.8351 17.0534 12.0537C17.8348 11.2723 18.8946 10.8333 19.9997 10.8333ZM19.9997 3.33331C23.0939 3.33331 26.0613 4.56248 28.2493 6.7504C30.4372 8.93832 31.6663 11.9058 31.6663 15C31.6663 23.75 19.9997 36.6666 19.9997 36.6666C19.9997 36.6666 8.33301 23.75 8.33301 15C8.33301 11.9058 9.56217 8.93832 11.7501 6.7504C13.938 4.56248 16.9055 3.33331 19.9997 3.33331ZM19.9997 6.66665C17.7895 6.66665 15.6699 7.54462 14.1071 9.10742C12.5443 10.6702 11.6663 12.7898 11.6663 15C11.6663 16.6666 11.6663 20 19.9997 31.1833C28.333 20 28.333 16.6666 28.333 15C28.333 12.7898 27.455 10.6702 25.8922 9.10742C24.3294 7.54462 22.2098 6.66665 19.9997 6.66665Z" fill="white"/>
</svg>
