<svg width="45" height="44" viewBox="0 0 45 44" fill="none" xmlns="http://www.w3.org/2000/svg">
<path d="M12.5871 21.9998C5.51637 11.5236 19.1382 8.24984 22.4979 3.6665C25.8583 8.24984 39.4795 11.5236 32.4042 21.9998H12.5871Z" stroke="#A85A00" stroke-width="1.5" stroke-linecap="round" stroke-linejoin="round"/>
<path d="M22.5 29.3335V33.0002" stroke="#A85A00" stroke-width="1.5" stroke-linecap="round" stroke-linejoin="round"/>
<path d="M12.417 22V29.8571C12.417 34.7957 12.417 37.2649 13.8937 38.7992C15.3703 40.3333 17.747 40.3333 22.5003 40.3333C27.2536 40.3333 29.6303 40.3333 31.1069 38.7992C32.5837 37.2649 32.5837 34.7957 32.5837 29.8571V22" stroke="#A85A00" stroke-width="1.5" stroke-linecap="round" stroke-linejoin="round"/>
<path d="M37.167 25.6667L39.0003 24.75M37.167 33L39.0003 33.9167" stroke="#A85A00" stroke-width="1.5" stroke-linecap="round" stroke-linejoin="round"/>
<path d="M7.83333 25.6667L6 24.75M7.83333 33L6 33.9167" stroke="#A85A00" stroke-width="1.5" stroke-linecap="round" stroke-linejoin="round"/>
</svg>
