<svg width="45" height="44" viewBox="0 0 45 44" fill="none" xmlns="http://www.w3.org/2000/svg">
<path d="M33.5 18.3335C33.5 18.3335 22.5 25.6668 22.5 38.5002" stroke="#098E00" stroke-width="1.5" stroke-linecap="round" stroke-linejoin="round"/>
<path d="M17.6398 20.5012C14.6864 22.7133 10.4796 22.4767 7.79424 19.7914C3.35086 15.348 4.23954 5.57254 4.23954 5.57254C4.23954 5.57254 14.015 4.68387 18.4584 9.12725C20.2175 10.8864 20.9259 13.2984 20.5832 15.5833" stroke="#098E00" stroke-width="1.5" stroke-linecap="round" stroke-linejoin="round"/>
<path d="M27.9339 23.4988C25.5143 20.8692 25.5798 16.7747 28.1301 14.2242C32.0798 10.2746 40.7691 11.0645 40.7691 11.0645C40.7691 11.0645 41.5591 19.7538 37.6094 23.7035C36.2278 25.0851 34.3931 25.7374 32.5836 25.6606" stroke="#098E00" stroke-width="1.5" stroke-linecap="round" stroke-linejoin="round"/>
<path d="M11.5 12.8335C11.5 12.8335 22.5 22.0002 22.5 38.5002" stroke="#098E00" stroke-width="1.5" stroke-linecap="round" stroke-linejoin="round"/>
</svg>
