<svg width="26" height="25" viewBox="0 0 26 25" fill="none" xmlns="http://www.w3.org/2000/svg">
<path d="M17.4787 16.9425L18.0677 16.3574L16.6998 14.9831L16.1134 15.5682L17.4787 16.9425ZM20.0427 16.112L22.511 17.454L23.4346 15.7516L20.9675 14.4108L20.0427 16.112ZM22.9851 20.12L21.1509 21.9451L22.5162 23.3182L24.3504 21.4943L22.9851 20.12ZM20.0323 22.5316C18.1594 22.7072 13.3157 22.5509 8.06891 17.3352L6.70232 18.7082C12.427 24.4006 17.8765 24.6796 20.2132 24.4613L20.0323 22.5316ZM8.06891 17.3352C3.06886 12.3623 2.23961 8.18114 2.13628 6.36634L0.201365 6.47614C0.330531 8.7598 1.35741 13.3943 6.70232 18.7082L8.06891 17.3352ZM9.84495 9.35268L10.2157 8.98326L8.85166 7.61022L8.48095 7.97834L9.84495 9.35268ZM10.5102 4.28805L8.88266 2.11289L7.33136 3.27539L8.95886 5.44926L10.5102 4.28805ZM3.4047 1.63884L1.37678 3.65384L2.74336 5.02818L4.76999 3.01318L3.4047 1.63884ZM9.16295 8.66551C8.47836 7.97834 8.47836 7.97834 8.47836 7.98093H8.47578L8.47191 7.98609C8.41052 8.04798 8.35556 8.11593 8.30787 8.18888C8.23812 8.29222 8.16191 8.42784 8.09732 8.59964C7.9401 9.0431 7.90092 9.51983 7.98366 9.98301C8.15674 11.1003 8.92657 12.5767 10.8977 14.5374L12.2642 13.1631C10.4184 11.3289 9.97928 10.2129 9.89791 9.68593C9.85916 9.43534 9.8992 9.31134 9.91082 9.28293C9.91857 9.2657 9.91857 9.26312 9.91082 9.27518C9.89931 9.293 9.88635 9.30985 9.87207 9.32555L9.85916 9.33847L9.84624 9.35009L9.16295 8.66551ZM10.8977 14.5374C12.87 16.4982 14.3542 17.2628 15.4727 17.4333C16.0449 17.5212 16.5061 17.4514 16.8561 17.321C17.0522 17.2493 17.2354 17.1463 17.3986 17.0161L17.4632 16.958L17.4722 16.9503L17.4761 16.9464L17.4774 16.9438C17.4774 16.9438 17.4787 16.9425 16.7954 16.2553C16.1108 15.5682 16.1147 15.5669 16.1147 15.5669L16.1173 15.5643L16.1199 15.5617L16.1276 15.5553L16.1405 15.5423L16.1896 15.5036C16.2017 15.4958 16.1987 15.4967 16.1806 15.5062C16.1483 15.5178 16.0217 15.5578 15.7672 15.5191C15.2325 15.4364 14.1087 14.9973 12.2642 13.1631L10.8977 14.5374ZM8.88266 2.11159C7.56516 0.354927 4.97666 0.0759269 3.4047 1.63884L4.76999 3.01318C5.45716 2.32989 6.67649 2.40093 7.33136 3.27539L8.88266 2.11159ZM2.13757 6.36764C2.11174 5.92072 2.31711 5.45314 2.74336 5.02947L1.37549 3.65514C0.681865 4.34489 0.13549 5.32139 0.201365 6.47614L2.13757 6.36764ZM21.1509 21.9451C20.797 22.2991 20.4147 22.498 20.0336 22.5328L20.2132 24.4613C21.1625 24.3722 21.9388 23.8943 22.5175 23.3195L21.1509 21.9451ZM10.2157 8.98326C11.4879 7.71872 11.5822 5.72051 10.5114 4.28934L8.96016 5.45055C9.4807 6.14676 9.4032 7.05997 8.85036 7.61151L10.2157 8.98326ZM22.5123 17.4553C23.5676 18.0288 23.7317 19.3799 22.9864 20.1213L24.3529 21.4943C26.0838 19.7726 25.5503 16.9012 23.4359 15.7529L22.5123 17.4553ZM18.0677 16.3587C18.5637 15.8653 19.3619 15.7438 20.0439 16.1133L20.9688 14.4121C19.5686 13.6501 17.8326 13.8606 16.7011 14.9843L18.0677 16.3587Z" fill="white"/>
</svg>
