<svg width="45" height="44" viewBox="0 0 45 44" fill="none" xmlns="http://www.w3.org/2000/svg">
<path d="M24.3337 20.1668C24.3337 16.1167 21.0503 12.8335 17.0003 12.8335C12.9502 12.8335 9.66699 16.1167 9.66699 20.1668C9.66699 24.2168 12.9502 27.5002 17.0003 27.5002C21.0503 27.5002 24.3337 24.2168 24.3337 20.1668Z" stroke="#0052CC" stroke-width="1.5" stroke-linecap="round" stroke-linejoin="round"/>
<path d="M20.7378 13.8558C20.691 13.5217 20.667 13.1803 20.667 12.8333C20.667 8.78324 23.9503 5.5 28.0003 5.5C32.0503 5.5 35.3337 8.78324 35.3337 12.8333C35.3337 16.8834 32.0503 20.1667 28.0003 20.1667C26.6352 20.1667 25.3574 19.7938 24.2629 19.1442" stroke="#0052CC" stroke-width="1.5" stroke-linecap="round" stroke-linejoin="round"/>
<path d="M28 38.5C28 32.4249 23.0751 27.5 17 27.5C10.9249 27.5 6 32.4249 6 38.5" stroke="#0052CC" stroke-width="1.5" stroke-linecap="round" stroke-linejoin="round"/>
<path d="M39 31.1665C39 25.0914 34.0751 20.1665 28 20.1665" stroke="#0052CC" stroke-width="1.5" stroke-linecap="round" stroke-linejoin="round"/>
</svg>
